

<svg
 
 
   width="311.86017"
   height="312.11816"
   viewBox="0 0 311.86017 312.11816"
   xmlns="http://www.w3.org/2000/svg"
  <defs
     id="defs6">
    <clipPath
       clipPathUnits="userSpaceOnUse"
       id="clipPath20">
      <path
         d="M 0,500 H 500 V 0 H 0 Z"
         id="path18" />
    </clipPath>
  </defs>
  <g
     id="g10"
     transform="matrix(1.3333333,0,0,-1.4971751,713.59618,709.74589)">
    <g
       id="g14"
       style="fill:#f9f9f9"
       transform="matrix(1.54623,0,0,1.3781592,-808.36542,13.439783)">
      <g
         id="g16"
         clip-path="url(#clipPath20)"
         style="fill:#f9f9f9">
        <g
           id="g22"
           transform="translate(280.2303,220.1602)"
           style="fill:#f9f9f9">
          <path
             d="M 0,0 C -4.887,-6.287 -9.918,-12.763 -11.116,-25.385 H -58.924 C -60.122,-12.763 -65.153,-6.287 -70.04,0 -75.536,7.071 -81.203,14.361 -82.152,33.704 H 12.112 C 11.163,14.361 5.496,7.071 0,0 m 22.72,21.887 h 1.349 c 6.516,0 11.818,-5.302 11.818,-11.818 0,-6.517 -5.302,-11.818 -11.818,-11.818 h -10.64 c 3.754,5.458 7.395,12.484 9.291,23.636 m 1.349,-35.454 c 13.033,0 23.636,10.603 23.636,23.636 0,13.033 -10.603,23.635 -23.636,23.635 h -0.131 c 0.085,1.88 0.131,3.846 0.131,5.909 v 5.909 H -94.109 v -5.909 c 0,-27.904 8.172,-38.418 14.738,-46.865 4.11,-5.288 7.503,-9.661 8.556,-18.133 h -32.748 V -37.202 H 33.523 v 11.817 H 0.775 c 0.626,5.037 2.079,8.627 4.019,11.818 z m -70.907,74.452 c 0,3.259 2.651,5.909 5.909,5.909 h 35.454 c 9.774,0 17.726,7.953 17.726,17.727 0,9.774 -7.952,17.727 -17.726,17.727 h -11.818 c -3.258,0 -5.909,2.65 -5.909,5.909 v 5.909 H -35.02 v -5.909 c 0,-9.775 7.952,-17.727 17.727,-17.727 h 11.818 c 3.258,0 5.908,-2.651 5.908,-5.909 0,-3.258 -2.65,-5.909 -5.908,-5.909 h -35.454 c -9.774,0 -17.727,-7.952 -17.727,-17.727 v -5.909 h 11.818 z"
             style="fill:#f9f9f9;fill-opacity:1;fill-rule:nonzero;stroke:none"
             id="path24" />
        </g>
      </g>
    </g>
  </g>
</svg>
